<?xml version="1.0" encoding="UTF-8"?>
<svg version="1.1" xmlns="http://www.w3.org/2000/svg" width="463" height="394">
<path d="M0 0 C98.34 0 196.68 0 298 0 C297.13126079 4.34369606 296.16922332 7.02295624 294.21533203 10.89404297 C293.63026886 12.06071503 293.04520569 13.22738708 292.44241333 14.42941284 C291.79759602 15.70036291 291.15272763 16.97128707 290.5078125 18.2421875 C289.83997644 19.56970072 289.17274117 20.89751634 288.506073 22.22561646 C286.74322153 25.73419728 284.97358335 29.23930765 283.2020874 32.74353027 C280.06705964 38.9474992 276.9434001 45.15720176 273.8203125 51.3671875 C273.47834084 52.04662163 273.13636917 52.72605576 272.78403473 53.4260788 C268.61908055 61.70497992 264.52729282 70.00922786 260.5546875 78.3828125 C253.23743325 93.6862683 245.58601304 108.82797392 238 124 C153.19 124 68.38 124 -19 124 C-19.33 125.98 -19.66 127.96 -20 130 C-22.97 137.59 -25.94 145.18 -29 153 C39.64 153.33 108.28 153.66 179 154 C169.96058091 173.20876556 169.96058091 173.20876556 165.5 181.125 C160.48861146 190.16246501 155.71247656 199.3047604 151 208.5 C145.3988081 219.42118714 139.67602916 230.26035201 133.74609375 241.0078125 C130.45868161 246.98407524 127.23372208 252.99451614 124 259 C75.49 259 26.98 259 -23 259 C-24.485 263.455 -24.485 263.455 -26 268 C-27.98 273.28 -29.96 278.56 -32 284 C48.85 284 129.7 284 213 284 C211.44040681 287.89898299 209.81981963 291.30360038 207.796875 294.953125 C207.48271133 295.52165192 207.16854767 296.09017883 206.84486389 296.67593384 C205.81616228 298.53559029 204.7831928 300.39283558 203.75 302.25 C203.02675333 303.55474855 202.30369262 304.8596002 201.58081055 306.16455078 C199.39214897 310.11245702 197.19713456 314.05680415 195 318 C194.05278076 319.7001123 194.05278076 319.7001123 193.08642578 321.43457031 C186.43242743 333.36450934 179.72639895 345.26459589 172.99047852 357.1484375 C169.93142626 362.55430741 166.89758432 367.97344334 163.88671875 373.40625 C163.54141617 374.02915924 163.19611359 374.65206848 162.84034729 375.29385376 C161.14413438 378.35502707 159.45046601 381.41757768 157.76000977 384.48193359 C157.15342529 385.57844238 156.54684082 386.67495117 155.921875 387.8046875 C155.38143555 388.78421387 154.84099609 389.76374023 154.28417969 390.77294922 C153 393 153 393 152 394 C150.6134317 394.09648067 149.22197394 394.12371896 147.83205318 394.12304783 C146.92786268 394.12503888 146.02367218 394.12702993 145.09208196 394.12908131 C143.58481781 394.12471205 143.58481781 394.12471205 142.04710388 394.12025452 C140.45936215 394.12153615 140.45936215 394.12153615 138.83954483 394.12284368 C135.26337444 394.12450164 131.68725011 394.11897198 128.11108398 394.11352539 C125.5592448 394.11324356 123.00740554 394.11340117 120.45556641 394.1139679 C114.94654686 394.11419622 109.43754237 394.1113447 103.92852592 394.10573006 C95.96332697 394.0976174 87.99813374 394.09500008 80.0329311 394.09374207 C67.11122491 394.09155118 54.18952503 394.08489009 41.26782227 394.07543945 C28.71248405 394.06626629 16.15714753 394.05918499 3.60180664 394.05493164 C2.82843751 394.05466892 2.05506838 394.05440619 1.25826382 394.05413551 C-2.62133999 394.05283051 -6.50094381 394.05156679 -10.38054764 394.05032361 C-42.58703634 394.03994984 -74.7935173 394.02233053 -107 394 C-106.52235757 392.39312776 -106.04355733 390.78659965 -105.56426525 389.1802187 C-105.29775699 388.28554679 -105.03124873 387.39087489 -104.75666445 386.46909171 C-103.9572524 383.86050917 -103.05510554 381.32496027 -102.04223633 378.79174805 C-101.51071709 377.45305916 -101.51071709 377.45305916 -100.96846008 376.08732605 C-100.59343857 375.15487564 -100.21841705 374.22242523 -99.83203125 373.26171875 C-99.43352463 372.26026321 -99.03501801 371.25880768 -98.62443542 370.227005 C-97.35775328 367.04557259 -96.08547295 363.86641989 -94.8125 360.6875 C-93.55830322 357.54749831 -92.30539602 354.40699129 -91.05412292 351.26582336 C-90.28007035 349.32348691 -89.50432985 347.38182155 -88.72627258 345.44108582 C-84.69320976 335.3380991 -80.87454262 325.17067439 -77 315 C-92.84 314.67 -108.68 314.34 -125 314 C-124.25894911 310.29474555 -123.53666978 307.55121713 -122.13671875 304.1418457 C-121.55749413 302.72170418 -121.55749413 302.72170418 -120.96656799 301.27287292 C-120.33342934 299.73981255 -120.33342934 299.73981255 -119.6875 298.17578125 C-119.02626381 296.55927422 -119.02626381 296.55927422 -118.35166931 294.91011047 C-116.90509474 291.37592765 -115.45248194 287.84425859 -114 284.3125 C-112.74162141 281.24094378 -111.48428416 278.16896368 -110.22720814 275.09687424 C-109.85055531 274.17644773 -109.85055531 274.17644773 -109.46629333 273.23742676 C-109.21498594 272.62330429 -108.96367855 272.00918182 -108.70475578 271.37644958 C-107.9391758 269.50627015 -107.1729957 267.63633768 -106.40663147 265.76647949 C-101.88524199 254.73206946 -97.40369599 243.68184333 -92.9375 232.625 C-85.98075429 215.40750318 -78.98928774 198.20440058 -72 181 C-102.69 181 -133.38 181 -165 181 C-159.83589498 170.09800052 -154.77302966 159.41603139 -149 148.875 C-147.7098503 146.49473803 -146.42140074 144.11367517 -145.13671875 141.73046875 C-144.80596848 141.11712173 -144.4752182 140.50377472 -144.13444519 139.87184143 C-139.16709642 130.62731154 -134.41064598 121.27165445 -129.63476562 111.92724609 C-129.28838547 111.25082565 -128.94200531 110.57440521 -128.58512878 109.87748718 C-127.64740097 108.04566637 -126.7119216 106.21269504 -125.77661133 104.37963867 C-123.934183 100.87479665 -121.96451347 97.43789857 -120 94 C-92.61 94 -65.22 94 -37 94 C-36.67 92.35 -36.34 90.7 -36 89 C-35.1546853 86.68150918 -34.26033643 84.38068521 -33.33544922 82.09277344 C-33.0636937 81.4170932 -32.79193817 80.74141296 -32.51194763 80.04525757 C-31.61369153 77.81492463 -30.70924658 75.58715824 -29.8046875 73.359375 C-29.17233496 71.79313601 -28.54035268 70.22674749 -27.90872192 68.66021729 C-26.24172973 64.52893443 -24.56940805 60.39982875 -22.89605713 56.27111816 C-21.55036928 52.94844601 -20.20830996 49.6243148 -18.86649895 46.30007553 C-16.64274477 40.79097824 -14.41677785 35.28277444 -12.18893433 29.77532959 C-11.93428846 29.14581264 -11.6796426 28.5162957 -11.4172802 27.86770248 C-7.6445612 18.56405266 -3.82275803 9.28384093 0 0 Z M21 30 C17.87536941 36.24926118 14.89062465 42.36904263 12.22265625 48.796875 C11.88882431 49.5929718 11.55499237 50.3890686 11.21104431 51.20928955 C10.15830519 53.72152503 9.11021943 56.23566753 8.0625 58.75 C7.02057036 61.24189785 5.97766126 63.73338341 4.93441772 66.22473145 C4.25649579 67.844408 3.57942005 69.46443903 2.90322876 71.08483887 C1.34389708 74.81699241 -0.22787761 78.54240484 -1.84033203 82.25195312 C-2.1225209 82.9020636 -2.40470978 83.55217407 -2.69544983 84.22198486 C-3.45061049 85.95576294 -4.21059692 87.68743689 -4.97094727 89.41894531 C-6.12344839 91.84652616 -6.12344839 91.84652616 -6 94 C68.91 94 143.82 94 221 94 C229.00658157 78.83175024 229.00658157 78.83175024 236.7890625 63.5546875 C237.26322601 62.6073172 237.73738953 61.6599469 238.22592163 60.68386841 C239.2028632 58.73065306 240.17883637 56.77695302 241.15380859 54.82275391 C242.65549321 51.81390226 244.16157193 48.80727603 245.66796875 45.80078125 C246.62525731 43.88554526 247.58229855 41.97018562 248.5390625 40.0546875 C248.9889151 39.15700653 249.4387677 38.25932556 249.9022522 37.33444214 C250.51452164 36.10517502 250.51452164 36.10517502 251.13916016 34.85107422 C251.49982574 34.12894745 251.86049133 33.40682068 252.23208618 32.66281128 C253.06987772 31.1539504 253.06987772 31.1539504 253 30 C176.44 30 99.88 30 21 30 Z M-101 123 C-104.63 130.26 -108.26 137.52 -112 145 C-113.32 147.64 -114.64 150.28 -116 153 C-98.18 153 -80.36 153 -62 153 C-57.23384064 142.72022248 -57.23384064 142.72022248 -52.625 132.375 C-51.87089844 130.65410156 -51.87089844 130.65410156 -51.1015625 128.8984375 C-49.8223691 126.04940097 -49.8223691 126.04940097 -50 123 C-66.83 123 -83.66 123 -101 123 Z M-42 181 C-46.10862593 190.01264966 -46.10862593 190.01264966 -49.90332031 199.12597656 C-50.15294022 199.75388092 -50.40256012 200.38178528 -50.65974426 201.02871704 C-51.46849494 203.06499039 -52.2733682 205.10277033 -53.078125 207.140625 C-53.6545395 208.59447005 -54.23118442 210.04822376 -54.80804443 211.50189209 C-56.31946252 215.31258459 -57.82751294 219.12460111 -59.3348999 222.93688965 C-60.8394946 226.74007312 -62.34773231 230.54181124 -63.85546875 234.34375 C-67.2446842 242.89279463 -70.62499635 251.4453357 -74 260 C-74.3707515 260.93940933 -74.3707515 260.93940933 -74.74899292 261.89779663 C-76.28898386 265.80040365 -77.82536862 269.70441211 -79.359375 273.609375 C-79.73580139 274.56442932 -80.11222778 275.51948364 -80.50006104 276.503479 C-80.83487488 277.35794617 -81.16968872 278.21241333 -81.51464844 279.09277344 C-81.80418396 279.82993591 -82.09371948 280.56709839 -82.39202881 281.32659912 C-83.05691268 282.85991155 -83.05691268 282.85991155 -83 284 C-76.73 284 -70.46 284 -64 284 C-61.14744075 276.6326588 -58.29922363 269.26365982 -55.45507812 261.89306641 C-54.4866052 259.38398906 -53.51646586 256.87556553 -52.54492188 254.36767578 C-51.15181224 250.76975691 -49.76298013 247.17021278 -48.375 243.5703125 C-47.93752441 242.44319855 -47.50004883 241.31608459 -47.04931641 240.15481567 C-46.64890137 239.11388763 -46.24848633 238.07295959 -45.8359375 237.00048828 C-45.48063965 236.08115509 -45.1253418 235.1618219 -44.75927734 234.21463013 C-43.891895 232.07487904 -43.891895 232.07487904 -44 230 C4.84 230 53.68 230 104 230 C109.29625341 220.73155653 114.56530985 211.45532173 119.75 202.125 C120.40231501 200.95571314 121.05465873 199.78644228 121.70703125 198.6171875 C122.33480469 197.48796875 122.96257812 196.35875 123.609375 195.1953125 C124.4442041 193.69508545 124.4442041 193.69508545 125.29589844 192.16455078 C127.27731106 188.48502779 129.1310492 184.7379016 131 181 C73.91 181 16.82 181 -42 181 Z M-44 313 C-56.39847738 337.25367007 -56.39847738 337.25367007 -64 365 C1.34 365 66.68 365 134 365 C139.28 355.76 144.56 346.52 150 337 C158.33333333 322.97222222 158.33333333 322.97222222 162.06054688 316.80224609 C163.15407918 315.0431485 163.15407918 315.0431485 163 313 C94.69 313 26.38 313 -44 313 Z " fill="#2A9D8F" transform="translate(165,0)"/>
</svg>
